<svg width="50" height="50" viewBox="0 0 50 50" fill="none" xmlns="http://www.w3.org/2000/svg">
<path d="M14.2882 6.92903C14.1875 6.9413 14.0961 6.99414 14.0352 7.07534L9.08307 13.6781C9.02948 13.7496 9.00334 13.8379 9.00942 13.927L9.55197 21.8844C9.56279 22.0431 9.6732 22.1775 9.82683 22.2189L14.442 23.4614C14.4873 23.4736 14.5345 23.4771 14.5811 23.4718L20.8115 22.7597C21.0078 22.7373 21.1874 22.8719 21.221 23.0666L22.1052 28.1947C22.1092 28.2184 22.1156 28.2416 22.1241 28.2641L23.5687 32.0561C23.6084 32.1603 23.5994 32.2768 23.5441 32.3736L22.1989 34.7277C22.1434 34.8247 22.1345 34.9415 22.1744 35.0458L25.444 43.5829C25.4972 43.7219 25.6279 43.8158 25.7765 43.822L29.892 43.9917C30.0169 43.9969 30.1361 43.939 30.2094 43.8377L32.4917 40.6792C32.5376 40.6157 32.5623 40.5393 32.5623 40.461V39.2514L33.1105 35.0489C33.1244 34.9422 33.1837 34.8467 33.2733 34.787L35.8167 33.0914C35.9204 33.0223 35.9827 32.906 35.9827 32.7814V27.7621C35.9827 27.6954 36.0005 27.63 36.0344 27.5726L40.5267 19.9675C40.6856 19.6984 40.4626 19.365 40.1532 19.4092L37.1839 19.8334C37.0314 19.8551 36.8813 19.7809 36.8061 19.6465L31.7752 10.6598C31.6825 10.494 31.7292 10.285 31.8838 10.1746L32.2552 9.90933C32.5186 9.72112 32.4332 9.30954 32.1165 9.2418L27.7754 8.31309C27.6772 8.29207 27.5747 8.31161 27.4911 8.36726L26.0661 9.31569C25.9688 9.38042 25.8468 9.39579 25.7366 9.35719L22.3375 8.16753C22.1997 8.1193 22.1028 7.99502 22.0896 7.84962L21.9561 6.3825C21.937 6.17316 21.7487 6.02101 21.54 6.0464L14.2882 6.92903Z" fill="url(#paint0_linear_953_5773)" stroke="#72D013" stroke-width="0.372586"/>
<path d="M36.6741 36.0669C36.5959 36.2819 36.5996 36.5182 36.6845 36.7307L36.8324 37.1012C37.1436 37.8803 38.2455 37.8832 38.5607 37.1057L39.4317 34.9572C39.7738 34.1133 38.8266 33.3305 38.0623 33.8253L37.5752 34.1407C37.4049 34.2509 37.2753 34.4137 37.206 34.6043L36.6741 36.0669Z" fill="url(#paint1_linear_953_5773)" stroke="#72D013" stroke-width="0.372586"/>
<defs>
<linearGradient id="paint0_linear_953_5773" x1="24.9606" y1="6" x2="24.9606" y2="46.5903" gradientUnits="userSpaceOnUse">
<stop stop-color="#72D013"/>
<stop offset="1" stop-color="#148E00"/>
</linearGradient>
<linearGradient id="paint1_linear_953_5773" x1="38.547" y1="32.2203" x2="38.547" y2="39.7303" gradientUnits="userSpaceOnUse">
<stop stop-color="#72D013"/>
<stop offset="1" stop-color="#148E00"/>
</linearGradient>
</defs>
</svg>
