<svg width="50" height="50" viewBox="0 0 50 50" fill="none" xmlns="http://www.w3.org/2000/svg">
<path d="M6.51993 12.0837C6.5166 12.0537 6.51791 12.0233 6.52383 11.9937L6.69211 11.1524C6.71952 11.0153 6.83989 10.9166 6.97969 10.9166H12.1267C12.219 10.9166 12.306 10.8732 12.3613 10.7993L13.3099 9.53459C13.3637 9.4628 13.4475 9.41961 13.5372 9.41737L16.326 9.34765C16.3659 9.34665 16.4053 9.33749 16.4416 9.32075L19.2142 8.04106C19.2719 8.01441 19.3368 8.00725 19.3989 8.02067L23.1157 8.82264L29.8464 10.1688L37.2501 10.9166L45.1492 11.5918C45.4273 11.6155 45.5181 11.9777 45.284 12.1299L44.8602 12.4053C44.6882 12.5171 44.6812 12.7664 44.8466 12.8877L45.3311 13.243C45.4824 13.354 45.492 13.5766 45.3508 13.7002L44.5259 14.4219C44.4645 14.4757 44.3833 14.5014 44.3021 14.4929L43.5357 14.4122C43.3064 14.3881 43.1402 14.6257 43.2416 14.8328L44.28 16.9547C44.4094 17.2193 44.1118 17.4882 43.8617 17.3327L42.1052 16.2408C42.0163 16.1856 41.9636 16.0872 41.9669 15.9826L42.0251 14.1205C42.0309 13.9341 41.8635 13.7896 41.6799 13.8227L37.5845 14.5613C37.5136 14.574 37.45 14.6124 37.4056 14.6691L36.3581 16.0076C36.241 16.1572 36.2948 16.3768 36.4677 16.4554L38.4753 17.368C38.5522 17.4029 38.6103 17.4693 38.6347 17.5501L39.5133 20.4564C39.5469 20.5672 39.512 20.6875 39.4243 20.7632L38.0718 21.9312C37.9819 22.0089 37.9477 22.1332 37.9853 22.2459L38.551 23.943C38.6458 24.2273 38.3034 24.4539 38.0787 24.2556L36.4127 22.7856C36.3734 22.7509 36.3256 22.7274 36.2742 22.7175L34.9921 22.47C34.7534 22.4239 34.5655 22.6716 34.6742 22.8891L35.5153 24.5713C35.5251 24.5909 35.5371 24.6094 35.551 24.6263L37.1342 26.5536C37.2051 26.6401 37.2208 26.7593 37.1745 26.8612L36.1713 29.0682C36.1435 29.1294 36.0956 29.1791 36.0355 29.2092L34.0603 30.1967C34.0431 30.2054 34.025 30.2123 34.0064 30.2174L31.9901 30.7673C31.7884 30.8223 31.7074 31.0646 31.8354 31.2299L33.7265 33.6699C33.817 33.7867 33.8065 33.9525 33.7021 34.0569L32.2681 35.4909C32.1373 35.6217 31.9194 35.6002 31.8167 35.4462L31.1636 34.4665C31.0066 34.231 30.6401 34.3325 30.6266 34.6152L30.5982 35.2121C30.5956 35.2664 30.6082 35.3203 30.6345 35.3679L31.1601 36.319C31.3244 36.6163 30.9362 36.9084 30.696 36.6682L29.8441 35.8163C29.7972 35.7694 29.7675 35.7079 29.7601 35.6419L29.3742 32.2333C29.3502 32.0212 29.1149 31.905 28.9319 32.0148L28.4482 32.3051C28.311 32.3873 28.1332 32.3446 28.0485 32.2089L26.5283 29.7747C26.4284 29.6147 26.2056 29.5893 26.0722 29.7227L23.0491 32.7457C22.9968 32.7981 22.9661 32.8684 22.9634 32.9424L22.8965 34.7794C22.8933 34.869 22.8493 34.9521 22.777 35.0051L22.1036 35.4996C21.941 35.6191 21.7091 35.5424 21.6497 35.3495L20.0669 30.2053C20.0176 30.045 19.8441 29.9586 19.6864 30.016L19.3291 30.1459C19.222 30.1848 19.1021 30.1582 19.0215 30.0777L17.4355 28.4916C17.386 28.4421 17.3204 28.4119 17.2506 28.4066L14.5051 28.1954C14.4636 28.1922 14.4232 28.1802 14.3867 28.1602L11.9666 26.8349C11.7315 26.7061 11.4611 26.9343 11.5485 27.1877L11.9555 28.3681C12.0075 28.5188 12.1703 28.6004 12.3221 28.5518L13.7353 28.0996C13.8466 28.064 13.9684 28.0979 14.0454 28.1858L15.2649 29.5795C15.383 29.7145 15.3534 29.9228 15.2025 30.0196L9.92088 33.4052C9.77765 33.497 9.58661 33.4481 9.50515 33.2987L6.10903 27.0725C6.0811 27.0213 6.06908 26.963 6.07448 26.9049L6.33479 24.1066C6.35105 23.9318 6.21115 23.7819 6.03566 23.7862L3.48818 23.848C3.33819 23.8517 3.20964 23.7415 3.19025 23.5928L3.03327 22.3883C3.01424 22.2422 3.1065 22.1047 3.24887 22.0669L3.9707 21.8753C4.06513 21.8503 4.14088 21.7798 4.17273 21.6875L4.74583 20.0255C4.80845 19.8439 5.02582 19.7705 5.18568 19.877L7.03834 21.1111C7.24569 21.2492 7.51993 21.0823 7.49241 20.8346L6.51993 12.0837Z" fill="url(#paint0_linear_953_5831)" stroke="#DB75BA" stroke-width="0.293275"/>
<path d="M30.0057 37.8173C29.7206 37.6644 29.4342 38.0179 29.643 38.265L31.9329 40.9755C32.0895 41.1609 32.3906 41.0868 32.4432 40.8499L32.5869 40.2037C32.6042 40.1256 32.5889 40.0439 32.5446 39.9774L31.7573 38.7964C31.7306 38.7563 31.6944 38.7234 31.6519 38.7007L30.0057 37.8173Z" fill="url(#paint1_linear_953_5831)" stroke="#DB75BA" stroke-width="0.293275"/>
<path d="M34.4549 42.1768C34.1543 42.1179 34.1806 41.6796 34.4861 41.657V41.657C34.5333 41.6535 34.5806 41.6628 34.623 41.684V41.684C34.8967 41.8208 34.7552 42.2357 34.4549 42.1768V42.1768Z" fill="url(#paint2_linear_953_5831)" stroke="#DB75BA" stroke-width="0.293275"/>
<path d="M34.1906 37.9126C33.9776 37.9126 33.8356 38.1324 33.9233 38.3265L34.7207 40.0923C34.76 40.1792 34.839 40.2416 34.9326 40.2596L36.4368 40.5489C36.597 40.5797 36.7515 40.4738 36.7807 40.3133L37.1764 38.1369L37.4411 36.6151C37.4619 36.4956 37.407 36.3757 37.3031 36.3133L36.9465 36.0994C36.8211 36.0241 36.6593 36.0528 36.5674 36.1666L35.2453 37.8036C35.1896 37.8725 35.1057 37.9126 35.0171 37.9126H34.1906Z" fill="url(#paint3_linear_953_5831)" stroke="#DB75BA" stroke-width="0.293275"/>
<path d="M37.7311 39.1885C37.621 39.2311 37.5472 39.3356 37.5438 39.4537L37.5166 40.4071C37.5087 40.6837 37.8936 40.7591 37.9907 40.5001L38.0025 40.4685C38.0653 40.3011 38.2884 40.2691 38.3957 40.4122V40.4122C38.5428 40.6084 38.8534 40.4632 38.7972 40.2245L38.7716 40.1156C38.7553 40.0463 38.7693 39.9734 38.8101 39.9151L39.2695 39.2589L39.3541 39.1319C39.5129 38.8937 39.2712 38.5924 39.0042 38.6957L37.7311 39.1885Z" fill="url(#paint4_linear_953_5831)" stroke="#DB75BA" stroke-width="0.293275"/>
<path d="M37.9526 32.4568C38.0161 32.2982 38.2537 32.3594 38.2325 32.529V32.529C38.2267 32.5754 38.2435 32.6217 38.2777 32.6536L39.3451 33.6498L39.7985 34.1536C39.9156 34.2837 39.8934 34.4867 39.751 34.5885L39.6267 34.6773C39.5445 34.7359 39.4379 34.7482 39.3446 34.7098L38.3114 34.2844C38.2541 34.2608 38.2058 34.2197 38.1733 34.1669L37.6892 33.3802C37.6488 33.3146 37.6419 33.2337 37.6705 33.1621L37.9526 32.4568Z" fill="url(#paint5_linear_953_5831)" stroke="#DB75BA" stroke-width="0.293275"/>
<path d="M39.3167 35.9466C39.2503 35.7949 39.3226 35.6183 39.4764 35.5568L39.5449 35.5294C39.5611 35.5229 39.5767 35.515 39.5914 35.5058L39.7543 35.404C39.9417 35.2869 40.1865 35.4113 40.2022 35.6318L40.2343 36.0806C40.2395 36.1528 40.2177 36.2244 40.1733 36.2815L40.0214 36.4767C39.8849 36.6522 39.6104 36.6179 39.5212 36.4142L39.3167 35.9466Z" fill="url(#paint6_linear_953_5831)" stroke="#DB75BA" stroke-width="0.293275"/>
<path d="M40.1045 25.2005C39.8896 25.2005 39.7476 24.9769 39.8391 24.7824L40.1826 24.0516C40.2195 23.9731 40.2894 23.9149 40.3734 23.8928L41.3896 23.6254C41.5417 23.5853 41.6351 23.4324 41.6014 23.2788L41.0592 20.8098C41.0216 20.6388 41.1413 20.4732 41.3154 20.4552L42.6862 20.3134C42.9029 20.291 43.0675 20.5043 42.9909 20.7082L42.7802 21.2696C42.7372 21.384 42.6278 21.4597 42.5056 21.4597H42.0866C41.8814 21.4597 41.7396 21.6651 41.8123 21.857L42.4227 23.4673C42.4608 23.5676 42.441 23.6806 42.3712 23.7621L41.2261 25.0981C41.1703 25.1631 41.089 25.2005 41.0034 25.2005H40.1045Z" fill="url(#paint7_linear_953_5831)" stroke="#DB75BA" stroke-width="0.293275"/>
<path d="M40.582 19.3403C40.4077 19.0296 40.8338 18.7354 41.0626 19.0085L41.1248 19.0828C41.2465 19.228 41.2006 19.4487 41.0312 19.5334L41.0151 19.5415C40.8751 19.6115 40.7048 19.5592 40.6282 19.4226L40.582 19.3403Z" fill="url(#paint8_linear_953_5831)" stroke="#DB75BA" stroke-width="0.293275"/>
<defs>
<linearGradient id="paint0_linear_953_5831" x1="24.5" y1="8" x2="24.5" y2="40.1913" gradientUnits="userSpaceOnUse">
<stop stop-color="#FFB4E7"/>
<stop offset="1" stop-color="#DB75BA"/>
</linearGradient>
<linearGradient id="paint1_linear_953_5831" x1="30.6322" y1="37.0901" x2="30.6322" y2="41.7233" gradientUnits="userSpaceOnUse">
<stop stop-color="#FFB4E7"/>
<stop offset="1" stop-color="#DB75BA"/>
</linearGradient>
<linearGradient id="paint2_linear_953_5831" x1="34.4461" y1="41.6516" x2="34.4461" y2="42.6102" gradientUnits="userSpaceOnUse">
<stop stop-color="#FFB4E7"/>
<stop offset="1" stop-color="#DB75BA"/>
</linearGradient>
<linearGradient id="paint3_linear_953_5831" x1="35.606" y1="35.9681" x2="35.606" y2="40.9209" gradientUnits="userSpaceOnUse">
<stop stop-color="#FFB4E7"/>
<stop offset="1" stop-color="#DB75BA"/>
</linearGradient>
<linearGradient id="paint4_linear_953_5831" x1="38.6712" y1="38.3615" x2="38.6712" y2="42.1159" gradientUnits="userSpaceOnUse">
<stop stop-color="#FFB4E7"/>
<stop offset="1" stop-color="#DB75BA"/>
</linearGradient>
<linearGradient id="paint5_linear_953_5831" x1="38.8216" y1="31.4063" x2="38.8216" y2="35.001" gradientUnits="userSpaceOnUse">
<stop stop-color="#FFB4E7"/>
<stop offset="1" stop-color="#DB75BA"/>
</linearGradient>
<linearGradient id="paint6_linear_953_5831" x1="39.7188" y1="35.1458" x2="39.7188" y2="36.9831" gradientUnits="userSpaceOnUse">
<stop stop-color="#FFB4E7"/>
<stop offset="1" stop-color="#DB75BA"/>
</linearGradient>
<linearGradient id="paint7_linear_953_5831" x1="41.4" y1="20.2646" x2="41.4" y2="25.5369" gradientUnits="userSpaceOnUse">
<stop stop-color="#FFB4E7"/>
<stop offset="1" stop-color="#DB75BA"/>
</linearGradient>
<linearGradient id="paint8_linear_953_5831" x1="40.2041" y1="16.6003" x2="40.2041" y2="19.8755" gradientUnits="userSpaceOnUse">
<stop stop-color="#FFB4E7"/>
<stop offset="1" stop-color="#DB75BA"/>
</linearGradient>
</defs>
</svg>
