<svg width="50" height="50" viewBox="0 0 50 50" fill="none" xmlns="http://www.w3.org/2000/svg">
<path d="M9.54003 33.2176C9.5139 33.6357 9.13678 33.9427 8.72206 33.8834L5.14322 33.3722C4.72572 33.3125 4.34701 33.6239 4.32484 34.0451L4.03042 39.6391C4.01267 39.9765 4.2325 40.2805 4.5584 40.3694L7.71192 41.2295C7.91218 41.2841 8.12628 41.2493 8.29899 41.1342L14.617 36.9222L19.1992 33.3219C19.5025 33.0836 19.94 33.1276 20.1898 33.4216L25.1921 39.3102C25.542 39.722 26.2044 39.6142 26.4055 39.1126L27.2619 36.977C27.3649 36.7199 27.3109 36.4264 27.1231 36.2229L26.666 35.7277C26.0981 35.1125 26.8639 34.1883 27.5739 34.6321L28.6866 35.3275C28.8217 35.4119 28.9249 35.5389 28.9799 35.6884L30.8085 40.6587C31.0356 41.2761 31.9044 41.2882 32.1487 40.6774L33.5494 37.1758C33.6147 37.0124 33.7377 36.8788 33.8951 36.8002L36.3389 35.5798C36.4963 35.5012 36.6193 35.3675 36.6847 35.2042L38.4421 30.8106C38.6143 30.3799 39.1438 30.2233 39.5227 30.4909L43.7122 33.4499C44.2153 33.8052 44.9028 33.4036 44.8405 32.7909L42.8433 13.1521C42.8185 12.9075 42.6702 12.6927 42.4503 12.5827L33.5258 8.1188C33.3725 8.04214 33.1969 8.02284 33.0306 8.06438L26.1008 9.79598C26.0096 9.81878 25.9237 9.8593 25.8481 9.91523L17.8369 15.8391C17.6538 15.9744 17.5458 16.1886 17.5458 16.4163V18.7193C17.5458 19.2093 18.0259 19.5553 18.4907 19.4004L20.447 18.7482C20.6906 18.667 20.959 18.7221 21.1509 18.8927L23.4772 20.9605C23.8171 21.2627 24.3487 21.1766 24.5759 20.7827L28.4464 14.074C28.801 13.4594 29.7372 13.677 29.7844 14.3849L29.9523 16.9024C29.9759 17.2567 30.255 17.5405 30.6089 17.57L32.505 17.728C33.1628 17.7828 33.4042 18.6216 32.8761 19.0176L30.1039 21.0968C30.0309 21.1516 29.948 21.1919 29.8599 21.2157L20.9726 23.6084C20.675 23.6885 20.3596 23.5698 20.1886 23.3134L19.5932 22.4202C19.1992 21.8293 18.278 22.1082 18.278 22.8184V23.3163C18.278 23.579 18.1345 23.8207 17.9039 23.9465L14.2509 25.9391L10.2273 27.9509C9.99847 28.0653 9.84783 28.2928 9.83187 28.5482L9.54003 33.2176Z" fill="url(#paint0_linear_953_5777)" stroke="#FE9A22" stroke-width="0.71785"/>
<path d="M10.3005 22.1023C10.3653 21.3244 11.45 21.1943 11.6969 21.9349L12.5156 24.3909C12.6572 24.8158 12.3794 25.2652 11.9361 25.3286L9.57889 25.6653C8.91964 25.7595 8.49861 24.9831 8.93713 24.482L10.0693 23.188C10.1703 23.0726 10.2317 22.9278 10.2445 22.775L10.3005 22.1023Z" fill="url(#paint1_linear_953_5777)" stroke="#FE9A22" stroke-width="0.71785"/>
<path d="M7.33844 24.669C6.87336 24.9481 6.32524 24.4632 6.54552 23.9675V23.9675C6.76914 23.4644 7.5099 23.5586 7.60041 24.1017V24.1017C7.63791 24.3267 7.534 24.5517 7.33844 24.669V24.669Z" fill="url(#paint2_linear_953_5777)" stroke="#FE9A22" stroke-width="0.71785"/>
<defs>
<linearGradient id="paint0_linear_953_5777" x1="24.5" y1="8" x2="24.5" y2="44.7596" gradientUnits="userSpaceOnUse">
<stop stop-color="#FFB800"/>
<stop offset="1" stop-color="#FF7A00"/>
</linearGradient>
<linearGradient id="paint1_linear_953_5777" x1="10.2248" y1="18.6171" x2="10.2248" y2="26.4383" gradientUnits="userSpaceOnUse">
<stop stop-color="#FFB800"/>
<stop offset="1" stop-color="#FF7A00"/>
</linearGradient>
<linearGradient id="paint2_linear_953_5777" x1="6.74729" y1="22.278" x2="6.74729" y2="25.7975" gradientUnits="userSpaceOnUse">
<stop stop-color="#FFB800"/>
<stop offset="1" stop-color="#FF7A00"/>
</linearGradient>
</defs>
</svg>
