<svg width="50" height="50" viewBox="0 0 50 50" fill="none" xmlns="http://www.w3.org/2000/svg">
<path d="M9.35344 13.7842C9.29982 13.7842 9.24724 13.799 9.20151 13.827L3.01292 17.6159C2.75332 17.7749 2.88121 18.1753 3.18488 18.1544L10.296 17.6639C10.4642 17.6523 10.607 17.7856 10.607 17.9542V23.3183C10.607 23.3902 10.5804 23.4595 10.5323 23.513L8.04928 26.2705C7.97918 26.3484 7.95634 26.4579 7.98946 26.5572L9.60777 31.4121C9.70574 31.7061 10.1341 31.6637 10.1725 31.3562L10.2209 30.9695C10.2533 30.7098 10.5854 30.6216 10.7424 30.831L12.5048 33.1809C12.5255 33.2085 12.5511 33.2323 12.5802 33.251L16.6898 35.8938L20.4479 38.4396C20.6901 38.6037 20.9958 38.3479 20.877 38.0805L19.5094 35.0035L18.4565 33.1587C18.3814 33.0272 18.218 32.9752 18.0808 33.0393L16.4287 33.8102C16.2593 33.8893 16.0603 33.7903 16.0212 33.6075L15.2702 30.1031C15.2358 29.9425 15.3411 29.7853 15.5027 29.7559L19.9463 28.9479C20.0447 28.9301 20.1454 28.9639 20.2129 29.0377L21.4012 30.3351C21.551 30.4987 21.8216 30.4411 21.8918 30.2306L22.6006 28.1041C22.617 28.0548 22.6463 28.0108 22.6855 27.9767L28.3713 23.0213C28.399 22.9972 28.431 22.9785 28.4656 22.9663L33.1522 21.3122C33.3157 21.2545 33.3927 21.0675 33.3174 20.9113L31.4605 17.065C31.412 16.9644 31.3101 16.9005 31.1985 16.9005H27.2199C27.1301 16.9005 27.0454 16.942 26.9902 17.0128L25.2411 19.2618C25.1211 19.416 24.8863 19.4105 24.7737 19.2509L23.3766 17.2717C23.2881 17.1464 23.3121 16.9739 23.4314 16.8776L26.4549 14.4356C26.6663 14.2648 26.549 13.9231 26.2772 13.9183L18.7688 13.7842H9.35344Z" fill="url(#paint0_linear_953_5814)" stroke="#392F99" stroke-width="0.290974"/>
<path d="M35.6047 10.7707C35.3322 10.786 35.2289 11.1344 35.449 11.2959L36.8712 12.3388C36.9625 12.4058 37.0067 12.5195 36.9845 12.6305L36.4524 15.2908C36.4364 15.3709 36.4548 15.454 36.5031 15.5199L37.8396 17.3424C37.9515 17.4949 38.1768 17.5019 38.2978 17.3567L40.2419 15.0237C40.2707 14.9892 40.307 14.9619 40.348 14.9438L45.2812 12.7674C45.3142 12.7528 45.3442 12.7323 45.3696 12.7068L47.4621 10.6132C47.651 10.4242 47.5067 10.102 47.24 10.117L35.6047 10.7707Z" fill="url(#paint1_linear_953_5814)" stroke="#392F99" stroke-width="0.290974"/>
<path d="M20.9992 32.6268C20.7022 32.6062 20.661 32.1864 20.9483 32.1084L21.0908 32.0697C21.1709 32.048 21.2565 32.0617 21.3258 32.1075L21.3749 32.1399C21.6581 32.327 21.4463 32.765 21.1239 32.6592L21.0633 32.6394C21.0425 32.6325 21.021 32.6283 20.9992 32.6268V32.6268Z" fill="url(#paint2_linear_953_5814)" stroke="#392F99" stroke-width="0.290974"/>
<path d="M24.2964 34.0582C24.005 34.0526 23.9019 33.6696 24.1511 33.5185L24.1672 33.5087C24.267 33.4482 24.3933 33.4532 24.488 33.5213L24.5023 33.5317C24.734 33.6984 24.6122 34.0643 24.3268 34.0588L24.2964 34.0582Z" fill="url(#paint3_linear_953_5814)" stroke="#392F99" stroke-width="0.290974"/>
<path d="M19.7006 12.9361C19.4391 12.7992 19.5242 12.4049 19.8188 12.3879L21.0602 12.3162C21.3823 12.2976 21.4908 12.739 21.1968 12.8719L20.4569 13.2062C20.3754 13.2431 20.2814 13.2403 20.2021 13.1988L19.7006 12.9361Z" fill="url(#paint4_linear_953_5814)" stroke="#392F99" stroke-width="0.290974"/>
<path d="M23.7337 12.573C23.4828 12.526 23.2973 12.8016 23.4353 13.0163L23.6142 13.2946C23.6869 13.4077 23.8276 13.4563 23.9545 13.4121L24.4117 13.2531C24.6934 13.1551 24.6629 12.7472 24.3698 12.6923L23.7337 12.573Z" fill="url(#paint5_linear_953_5814)" stroke="#392F99" stroke-width="0.290974"/>
<path d="M27.5254 14.8698C27.3451 14.7753 27.315 14.5297 27.4671 14.3945L27.789 14.1084C27.8097 14.0901 27.8328 14.0747 27.8578 14.0629L28.6738 13.6764C28.8959 13.5712 29.1403 13.7716 29.0807 14.0099L28.8002 15.1317C28.7545 15.3145 28.5498 15.4063 28.3829 15.3189L27.5254 14.8698Z" fill="url(#paint6_linear_953_5814)" stroke="#392F99" stroke-width="0.290974"/>
<path d="M26.562 12.786C26.5692 12.8729 26.6964 12.8729 26.7036 12.786V12.786C26.7057 12.7609 26.7209 12.7388 26.7435 12.7279L27.8067 12.2147C28.0797 12.0829 27.9943 11.6735 27.6914 11.6619L27.1478 11.641C27.0185 11.636 26.9015 11.717 26.8605 11.8397L26.5633 12.7313C26.5602 12.7407 26.559 12.7506 26.5598 12.7605L26.562 12.786Z" fill="url(#paint7_linear_953_5814)" stroke="#392F99" stroke-width="0.290974"/>
<path d="M36.6506 10L35.492 10.1448C35.473 10.1472 35.4542 10.1514 35.4361 10.1575L30.9997 11.6363C30.8753 11.6778 30.7384 11.6308 30.6656 11.5216L30.4561 11.2073C30.3362 11.0275 30.4472 10.7843 30.6617 10.7572L36.6506 10Z" fill="url(#paint8_linear_953_5814)" stroke="#392F99" stroke-width="0.290974"/>
<path d="M30.2381 15.7232C29.9711 15.6278 29.9843 15.2458 30.2572 15.169L31.0777 14.9383C31.3271 14.8681 31.3674 14.5316 31.1416 14.4045L29.3785 13.4128L28.4676 13.0293C28.2539 12.9393 28.2261 12.6476 28.4191 12.519L29.1981 11.9996C29.2658 11.9545 29.3493 11.9398 29.4283 11.959L31.9291 12.5673C32.0061 12.586 32.0722 12.6354 32.112 12.7039L33.2467 14.6581C33.3244 14.7919 33.2838 14.9631 33.1543 15.0478L31.5771 16.079C31.5008 16.1289 31.4057 16.1402 31.32 16.1095L30.2381 15.7232Z" fill="url(#paint9_linear_953_5814)" stroke="#392F99" stroke-width="0.290974"/>
<defs>
<linearGradient id="paint0_linear_953_5814" x1="17.7293" y1="13.7842" x2="17.7293" y2="40.7297" gradientUnits="userSpaceOnUse">
<stop stop-color="#8477FF"/>
<stop offset="1" stop-color="#392F99"/>
</linearGradient>
<linearGradient id="paint1_linear_953_5814" x1="41.3979" y1="10.0742" x2="41.3979" y2="18.1584" gradientUnits="userSpaceOnUse">
<stop stop-color="#8477FF"/>
<stop offset="1" stop-color="#392F99"/>
</linearGradient>
<linearGradient id="paint2_linear_953_5814" x1="21.3106" y1="32.0355" x2="21.3106" y2="33.4233" gradientUnits="userSpaceOnUse">
<stop stop-color="#8477FF"/>
<stop offset="1" stop-color="#392F99"/>
</linearGradient>
<linearGradient id="paint3_linear_953_5814" x1="24.2765" y1="33.4089" x2="24.2765" y2="34.1222" gradientUnits="userSpaceOnUse">
<stop stop-color="#8477FF"/>
<stop offset="1" stop-color="#392F99"/>
</linearGradient>
<linearGradient id="paint4_linear_953_5814" x1="20.698" y1="12.2258" x2="20.698" y2="13.3354" gradientUnits="userSpaceOnUse">
<stop stop-color="#8477FF"/>
<stop offset="1" stop-color="#392F99"/>
</linearGradient>
<linearGradient id="paint5_linear_953_5814" x1="24.2575" y1="12.4486" x2="24.2575" y2="13.5582" gradientUnits="userSpaceOnUse">
<stop stop-color="#8477FF"/>
<stop offset="1" stop-color="#392F99"/>
</linearGradient>
<linearGradient id="paint6_linear_953_5814" x1="28.1911" y1="13.413" x2="28.1911" y2="15.6321" gradientUnits="userSpaceOnUse">
<stop stop-color="#8477FF"/>
<stop offset="1" stop-color="#392F99"/>
</linearGradient>
<linearGradient id="paint7_linear_953_5814" x1="27.7087" y1="11.6326" x2="27.7087" y2="13.7725" gradientUnits="userSpaceOnUse">
<stop stop-color="#8477FF"/>
<stop offset="1" stop-color="#392F99"/>
</linearGradient>
<linearGradient id="paint8_linear_953_5814" x1="33.4229" y1="10" x2="33.4229" y2="11.8229" gradientUnits="userSpaceOnUse">
<stop stop-color="#8477FF"/>
<stop offset="1" stop-color="#392F99"/>
</linearGradient>
<linearGradient id="paint9_linear_953_5814" x1="30.677" y1="11.9288" x2="30.677" y2="16.4464" gradientUnits="userSpaceOnUse">
<stop stop-color="#8477FF"/>
<stop offset="1" stop-color="#392F99"/>
</linearGradient>
</defs>
</svg>
