<svg width="50" height="50" viewBox="0 0 50 50" fill="none" xmlns="http://www.w3.org/2000/svg">
<path d="M3.41008 24.2082C3.24931 24.3188 3.15201 24.5004 3.14891 24.6956L3.01187 33.3289C3.00577 33.7135 3.35627 34.0055 3.73343 33.9301L14.9023 31.6963C15.1466 31.6475 15.3958 31.7538 15.5296 31.964L17.3532 34.8297C17.4235 34.9401 17.5278 35.0247 17.6503 35.0707L19.5315 35.7761C19.767 35.8644 19.923 36.0895 19.923 36.341V37.089C19.923 37.3892 20.1438 37.6438 20.441 37.6862L23.0594 38.0603C23.1219 38.0692 23.1854 38.0683 23.2476 38.0575L26.4128 37.5097C26.5898 37.4791 26.7439 37.3712 26.8333 37.2154L32.5209 27.2985C32.627 27.1134 32.6276 26.8861 32.5223 26.7005L29.515 21.4021C29.4796 21.3396 29.4555 21.2713 29.4441 21.2004L28.7032 16.6067C28.6959 16.5613 28.6834 16.5169 28.666 16.4744L27.9561 14.7392C27.7405 14.2121 26.9817 14.2498 26.8194 14.7957L25.8127 18.1822C25.7083 18.5331 25.318 18.711 24.9847 18.5595L22.7251 17.5324C22.4441 17.4046 22.3048 17.0853 22.4024 16.7924L22.6553 16.0338C22.7606 15.7177 22.5898 15.3761 22.2737 15.2707L19.969 14.5025C19.7522 14.4302 19.5132 14.4866 19.3516 14.6482L17.4048 16.5951C17.2499 16.75 17.0231 16.8088 16.8124 16.7486L15.2734 16.3089C15.1002 16.2594 14.914 16.2899 14.7656 16.392L3.41008 24.2082Z" fill="url(#paint0_linear_953_5834)" stroke="#FFD600" stroke-width="0.603315"/>
<path d="M21.3998 39.4989C21.0285 39.4778 20.7268 39.7945 20.7657 40.1644L20.8562 41.0238C20.911 41.5449 21.5585 41.7532 21.9069 41.3617L22.6306 40.5484C22.9661 40.1713 22.7179 39.5735 22.214 39.545L21.3998 39.4989Z" fill="url(#paint1_linear_953_5834)" stroke="#FFD600" stroke-width="0.603315"/>
<path d="M35.0065 44.1634C34.4572 44.1863 34.166 43.5227 34.5547 43.134L35.3765 42.3122C35.4323 42.2565 35.4984 42.2123 35.5711 42.1819L38.4433 40.9852C39.0415 40.7359 39.5583 41.4765 39.118 41.952L37.3222 43.8915C37.214 44.0084 37.0639 44.0777 36.9047 44.0843L35.0065 44.1634Z" fill="url(#paint2_linear_953_5834)" stroke="#FFD600" stroke-width="0.603315"/>
<path d="M42.7024 38.8342C42.613 38.5063 42.8201 38.1713 43.1533 38.1047V38.1047C43.2536 38.0847 43.3469 38.0387 43.4239 37.9715L44.4522 37.0743C44.5076 37.026 44.5474 36.9624 44.5667 36.8915L44.6907 36.4371C44.7916 36.067 45.3392 36.1537 45.3209 36.5368V36.5368C45.3128 36.7083 45.441 36.8558 45.6119 36.8717L45.7557 36.885C46.1887 36.9251 46.3417 37.4798 45.9904 37.7362L43.706 39.4039C43.3646 39.6531 42.8794 39.4831 42.7682 39.0753L42.7024 38.8342Z" fill="url(#paint3_linear_953_5834)" stroke="#FFD600" stroke-width="0.603315"/>
<path d="M20.9482 5.9741C20.4009 5.70046 19.8409 6.3214 20.1694 6.83763L21.0722 8.25637C21.1258 8.34054 21.1994 8.41011 21.2865 8.45886L24.9345 10.5018C24.978 10.5261 25.0243 10.545 25.0724 10.5579L28.9017 11.5889C28.9667 11.6064 29.0284 11.6347 29.0841 11.6726L30.5789 12.689C31.1137 13.0527 31.7682 12.4342 31.4355 11.8797L31.2799 11.6204C31.1208 11.3553 31.1879 11.0128 31.4352 10.8273L31.5485 10.7424C31.8815 10.4926 31.8675 9.98864 31.5212 9.75774L27.2677 6.92205C27.1927 6.87208 27.1075 6.83953 27.0183 6.82679L24.0758 6.40642C23.9756 6.39211 23.8734 6.40323 23.7786 6.43877L22.9386 6.75377C22.7815 6.81267 22.607 6.80351 22.457 6.72849L20.9482 5.9741Z" fill="url(#paint4_linear_953_5834)" stroke="#FFD600" stroke-width="0.603315"/>
<defs>
<linearGradient id="paint0_linear_953_5834" x1="17.8461" y1="13.1538" x2="17.8461" y2="39.7725" gradientUnits="userSpaceOnUse">
<stop stop-color="#FFF500"/>
<stop offset="1" stop-color="#FFD600"/>
</linearGradient>
<linearGradient id="paint1_linear_953_5834" x1="22.076" y1="39.4587" x2="22.076" y2="42.5811" gradientUnits="userSpaceOnUse">
<stop stop-color="#FFF500"/>
<stop offset="1" stop-color="#FFD600"/>
</linearGradient>
<linearGradient id="paint2_linear_953_5834" x1="37.2301" y1="39.9202" x2="37.2301" y2="44.5215" gradientUnits="userSpaceOnUse">
<stop stop-color="#FFF500"/>
<stop offset="1" stop-color="#FFD600"/>
</linearGradient>
<linearGradient id="paint3_linear_953_5834" x1="44.7679" y1="33.6156" x2="44.7679" y2="40.35" gradientUnits="userSpaceOnUse">
<stop stop-color="#FFF500"/>
<stop offset="1" stop-color="#FFD600"/>
</linearGradient>
<linearGradient id="paint4_linear_953_5834" x1="25.923" y1="5" x2="25.923" y2="14.8599" gradientUnits="userSpaceOnUse">
<stop stop-color="#FFF500"/>
<stop offset="1" stop-color="#FFD600"/>
</linearGradient>
</defs>
</svg>
