<svg width="50" height="50" viewBox="0 0 50 50" fill="none" xmlns="http://www.w3.org/2000/svg">
<path d="M14.3343 5.66073C14.1587 5.67358 14.0071 5.78859 13.9475 5.95425L12.0655 11.182C12.0237 11.2981 12.0319 11.4263 12.0882 11.5361L16.741 20.6203C16.7622 20.6616 16.7897 20.6994 16.8226 20.7323L18.9094 22.8191C18.9965 22.9062 19.0436 23.0253 19.0397 23.1484L18.5982 37.0543C18.5938 37.1918 18.6532 37.3237 18.7592 37.4115L25.8997 43.333C26.2857 43.653 26.8243 43.1906 26.5664 42.7606L25.2512 40.5688C25.2064 40.4941 25.1845 40.4079 25.1881 40.3209L25.4015 35.2014C25.4068 35.0744 25.4661 34.9556 25.5646 34.8751L30.2936 31.0058C30.3692 30.944 30.4224 30.8591 30.445 30.7641L31.5133 26.2771C31.5349 26.1864 31.5845 26.1047 31.655 26.0436L34.8556 23.2697C34.921 23.213 34.9685 23.1385 34.9923 23.0553L36.3195 18.4098L37.78 14.0284C37.8537 13.8074 37.7448 13.5671 37.5302 13.4767L29.452 10.0754C29.3383 10.0275 29.2495 9.93453 29.2068 9.8187L27.7731 5.92721C27.7173 5.77572 27.5839 5.66625 27.4244 5.64107L23.415 5.00802C23.3813 5.00269 23.3471 5.00126 23.313 5.00375L14.3343 5.66073Z" fill="#0A6AAF"/>
<path d="M14.3343 5.66073C14.1587 5.67358 14.0071 5.78859 13.9475 5.95425L12.0655 11.182C12.0237 11.2981 12.0319 11.4263 12.0882 11.5361L16.741 20.6203C16.7622 20.6616 16.7897 20.6994 16.8226 20.7323L18.9094 22.8191C18.9965 22.9062 19.0436 23.0253 19.0397 23.1484L18.5982 37.0543C18.5938 37.1918 18.6532 37.3237 18.7592 37.4115L25.8997 43.333C26.2857 43.653 26.8243 43.1906 26.5664 42.7606L25.2512 40.5688C25.2064 40.4941 25.1845 40.4079 25.1881 40.3209L25.4015 35.2014C25.4068 35.0744 25.4661 34.9556 25.5646 34.8751L30.2936 31.0058C30.3692 30.944 30.4224 30.8591 30.445 30.7641L31.5133 26.2771C31.5349 26.1864 31.5845 26.1047 31.655 26.0436L34.8556 23.2697C34.921 23.213 34.9685 23.1385 34.9923 23.0553L36.3195 18.4098L37.78 14.0284C37.8537 13.8074 37.7448 13.5671 37.5302 13.4767L29.452 10.0754C29.3383 10.0275 29.2495 9.93453 29.2068 9.8187L27.7731 5.92721C27.7173 5.77572 27.5839 5.66625 27.4244 5.64107L23.415 5.00802C23.3813 5.00269 23.3471 5.00126 23.313 5.00375L14.3343 5.66073Z" fill="black" fill-opacity="0.2"/>
<path d="M14.3343 5.66073C14.1587 5.67358 14.0071 5.78859 13.9475 5.95425L12.0655 11.182C12.0237 11.2981 12.0319 11.4263 12.0882 11.5361L16.741 20.6203C16.7622 20.6616 16.7897 20.6994 16.8226 20.7323L18.9094 22.8191C18.9965 22.9062 19.0436 23.0253 19.0397 23.1484L18.5982 37.0543C18.5938 37.1918 18.6532 37.3237 18.7592 37.4115L25.8997 43.333C26.2857 43.653 26.8243 43.1906 26.5664 42.7606L25.2512 40.5688C25.2064 40.4941 25.1845 40.4079 25.1881 40.3209L25.4015 35.2014C25.4068 35.0744 25.4661 34.9556 25.5646 34.8751L30.2936 31.0058C30.3692 30.944 30.4224 30.8591 30.445 30.7641L31.5133 26.2771C31.5349 26.1864 31.5845 26.1047 31.655 26.0436L34.8556 23.2697C34.921 23.213 34.9685 23.1385 34.9923 23.0553L36.3195 18.4098L37.78 14.0284C37.8537 13.8074 37.7448 13.5671 37.5302 13.4767L29.452 10.0754C29.3383 10.0275 29.2495 9.93453 29.2068 9.8187L27.7731 5.92721C27.7173 5.77572 27.5839 5.66625 27.4244 5.64107L23.415 5.00802C23.3813 5.00269 23.3471 5.00126 23.313 5.00375L14.3343 5.66073Z" stroke="#1381D0" stroke-width="0.445658"/>
</svg>
