<?xml version="1.0" standalone="no"?>
<!DOCTYPE svg PUBLIC "-//W3C//DTD SVG 20010904//EN"
 "http://www.w3.org/TR/2001/REC-SVG-20010904/DTD/svg10.dtd">
<svg version="1.0" xmlns="http://www.w3.org/2000/svg"
 width="48.000000pt" height="48.000000pt" viewBox="0 0 48.000000 48.000000"
 preserveAspectRatio="xMidYMid meet">
<metadata>
Created by potrace 1.16, written by Peter Selinger 2001-2019
</metadata>
<g transform="translate(0.000000,48.000000) scale(0.100000,-0.100000)"
fill="#1D53B7" stroke="none">
<path d="M125 417 c-114 -65 -114 -249 0 -314 48 -27 131 -31 177 -7 30 16 31
15 67 -20 68 -66 101 -33 35 35 -35 36 -36 37 -20 67 24 46 20 129 -7 177 -46
81 -166 111 -252 62z m165 -45 c74 -46 85 -144 24 -206 -53 -52 -135 -52 -188
0 -111 111 31 289 164 206z"/>
</g>
</svg>
